<svg xmlns="http://www.w3.org/2000/svg" viewBox="0 0 512 512">
  <defs>
    <linearGradient id="g" x1="96" y1="64" x2="416" y2="448" gradientUnits="userSpaceOnUse">
      <stop stop-color="#FFE4B8"/>
      <stop offset="0.52" stop-color="#E8B87A"/>
      <stop offset="1" stop-color="#B9773E"/>
    </linearGradient>
    <filter id="shadow" x="-30%" y="-30%" width="160%" height="160%">
      <feDropShadow dx="0" dy="24" stdDeviation="22" flood-color="#000" flood-opacity="0.45"/>
    </filter>
  </defs>
  <rect width="512" height="512" rx="116" fill="#050505"/>
  <g filter="url(#shadow)">
    <path d="M256 430S84 326 84 194c0-60 42-104 96-104 34 0 62 18 76 46 14-28 42-46 76-46 54 0 96 44 96 104 0 132-172 236-172 236Z" fill="none" stroke="url(#g)" stroke-width="34" stroke-linecap="round" stroke-linejoin="round"/>
    <circle cx="184" cy="194" r="28" fill="url(#g)"/>
    <circle cx="256" cy="158" r="27" fill="url(#g)"/>
    <circle cx="328" cy="194" r="28" fill="url(#g)"/>
    <path d="M256 252c54 0 94 39 94 86 0 40-33 58-67 42-18-9-36-9-54 0-34 16-67-2-67-42 0-47 40-86 94-86Z" fill="url(#g)"/>
  </g>
</svg>
